PathFileType	4	(X/Y/Z)	C:\Users\Biomechanik\SynologyDrive\AlexP\Athlete_03\Athlete_3_25_03_31\Deadlift_bw_01\marker_experimental.trc
DataRate	CameraRate	NumFrames	NumMarkers	Units	OrigDataRate	OrigDataStartFrame	OrigNumFrames
200.000000	200.000000	4	55	mm	200.000000	190	1527
Frame#	Time	BL			BR			GLAB			RFHD			LFHD			C7			T6			SPINMOL			SPINM2			SPINM3			T12			BELTOL			BELT2			BELT3			SACROL			SACR2			SACR3			LTHOL			LTH2			LTH3			LSHAOL			LSHA2			LSHA3			LHEE			LTOE			LM5			RTHOL			RTH2			RTH3			RSHAOL			RSHA2			RSHA3			RHEE			RTOE			RM5			STRN			XIPH			LACR			LUAOL			LUA2			LUA3			LLAOL			LLA2			LLA3			LWRR			LWRU			RACR			RUAOL			RUA2			RUA3			RLAOL			RLA2			RLA3			RWRR			RWRU			
		X1	Y1	Z1	X2	Y2	Z2	X3	Y3	Z3	X4	Y4	Z4	X5	Y5	Z5	X6	Y6	Z6	X7	Y7	Z7	X8	Y8	Z8	X9	Y9	Z9	X10	Y10	Z10	X11	Y11	Z11	X12	Y12	Z12	X13	Y13	Z13	X14	Y14	Z14	X15	Y15	Z15	X16	Y16	Z16	X17	Y17	Z17	X18	Y18	Z18	X19	Y19	Z19	X20	Y20	Z20	X21	Y21	Z21	X22	Y22	Z22	X23	Y23	Z23	X24	Y24	Z24	X25	Y25	Z25	X26	Y26	Z26	X27	Y27	Z27	X28	Y28	Z28	X29	Y29	Z29	X30	Y30	Z30	X31	Y31	Z31	X32	Y32	Z32	X33	Y33	Z33	X34	Y34	Z34	X35	Y35	Z35	X36	Y36	Z36	X37	Y37	Z37	X38	Y38	Z38	X39	Y39	Z39	X40	Y40	Z40	X41	Y41	Z41	X42	Y42	Z42	X43	Y43	Z43	X44	Y44	Z44	X45	Y45	Z45	X46	Y46	Z46	X47	Y47	Z47	X48	Y48	Z48	X49	Y49	Z49	X50	Y50	Z50	X51	Y51	Z51	X52	Y52	Z52	X53	Y53	Z53	X54	Y54	Z54	X55	Y55	Z55	

191	0.9500000000000001	1214.2470703125	39.2580718994142	-2269.2275390625	1226.860595703125	29.85252761840822	-248.7820892333984	624.099365234375	1095.53857421875	-1217.206665039062	610.2596435546875	1149.750366210938	-1154.254028320312	607.9876708984375	1141.21923828125	-1290.498779296875	354.8036499023438	1152.463012695312	-1216.098022460938	186.481689453125	1089.213623046875	-1214.113647460938	152.8364562988281	1069.697265625	-1234.92724609375	146.2617645263672	1064.620727539062	-1185.455444335938	104.1091461181641	1026.936645507812	-1220.860473632812	62.40835571289062	974.4558105468751	-1215.794921875	24.25128173828125	965.3304443359376	-1229.586059570312	24.73575973510742	962.4495239257814	-1179.186889648438	-19.36396408081055	921.2294311523439	-1206.709106445312	-92.01542663574219	830.6307373046876	-1228.60107421875	-88.69489288330078	826.9370117187501	-1177.402709960938	-116.0944747924805	773.2947387695314	-1205.06005859375	116.8136215209961	549.2771606445314	-1420.073486328125	126.3272705078125	475.6463317871095	-1394.054443359375	160.9898223876953	507.5850219726564	-1412.378173828125	219.4728240966797	301.4879150390626	-1433.532836914062	156.099609375	254.7788391113282	-1420.16650390625	204.3095397949219	242.5264892578126	-1424.188232421875	76.09371185302734	68.60120391845712	-1321.614379882812	293.3147583007812	48.31504058837898	-1329.247436523438	244.0621337890625	29.5766029357911	-1429.734008789062	108.5133819580078	546.1336059570314	-998.9505004882812	186.6722564697266	551.4013671875001	-981.1104125976562	161.6543273925781	513.4261474609376	-1002.470031738281	215.9802856445312	317.0858764648438	-990.4155883789062	228.1557159423828	239.7950286865235	-997.1607055664062	185.5587158203125	264.2593383789063	-1004.309204101562	76.61132049560547	63.73908233642585	-1113.85302734375	289.6007080078125	47.87370300292976	-1103.119506835938	236.8183135986328	39.33366012573249	-1003.439697265625	407.6632690429688	961.5474243164064	-1216.638427734375	305.661865234375	853.8984985351564	-1208.381469726562	410.8114929199219	1039.5419921875	-1382.728637695312	382.6327514648438	891.5209350585939	-1480.812744140625	358.916015625	837.3207397460939	-1509.380126953125	387.9695739746094	827.7644653320314	-1469.042236328125	335.87060546875	632.2727661132814	-1530.148071289062	278.4674377441406	577.9279785156251	-1535.857666015625	327.4692687988281	572.0848999023439	-1528.677490234375	320.4779663085938	466.432830810547	-1523.414306640625	336.5874938964844	466.5419921875001	-1445.553955078125	420.5965881347656	1038.966430664062	-1058.222412109375	386.0445861816406	901.9788208007814	-958.594970703125	388.22119140625	836.8075561523439	-955.2269897460938	354.922607421875	855.6436157226562	-923.0968017578125	333.9920654296875	632.6067504882812	-896.9146728515625	381.2638244628906	568.3384399414062	-897.3694458007812	331.4046020507812	569.74609375	-897.6831665039062	350.3773803710938	480.1798400878907	-902.357666015625	362.1867980957031	468.5388183593751	-980.12060546875	
192	0.9550000000000001	1214.246826171875	39.25733566284194	-2269.226318359375	1226.860717773438	29.85274124145509	-248.7814178466797	624.5596313476562	1092.689086914062	-1217.162231445312	610.690185546875	1146.881225585938	-1154.195678710938	608.4472045898438	1138.380859375	-1290.447998046875	355.3382873535156	1149.790649414062	-1216.106201171875	186.9283599853516	1086.909301757812	-1214.1611328125	153.2250366210938	1067.470336914062	-1235.002319335938	146.6549835205078	1062.404418945312	-1185.50341796875	104.4170837402344	1024.843994140625	-1220.932495117188	62.57336807250977	972.4409179687501	-1215.875	24.43169403076172	963.3805541992189	-1229.66357421875	24.89933204650879	960.4898681640626	-1179.264526367188	-19.26280212402344	919.3413085937501	-1206.834350585938	-92.20236206054688	828.7237548828126	-1228.71826171875	-88.87730407714844	825.0126342773439	-1177.52099609375	-116.3002700805664	771.3873901367189	-1205.193359375	117.193359375	548.0570068359376	-1420.256958007812	127.0303344726562	474.4310607910157	-1394.265380859375	161.5409240722656	506.5256958007814	-1412.619140625	220.0758819580078	301.2094116210939	-1433.675659179688	156.5804748535156	254.6721954345704	-1420.279907226562	204.7676696777344	242.2802886962891	-1424.300659179688	76.114990234375	68.62464141845712	-1321.598999023438	293.3472900390625	48.28913116455086	-1329.236450195312	244.0424346923828	29.57987213134775	-1429.746337890625	108.868408203125	544.7979736328126	-998.8812255859375	186.9976959228516	550.4183349609376	-980.9950561523438	162.1577606201172	512.3247070312501	-1002.333312988281	216.6225738525391	316.7923278808594	-990.3076171875	228.6150970458984	239.4848327636719	-997.0897827148438	186.0579833984375	264.0530700683594	-1004.207580566406	76.64219665527344	63.77728652954109	-1113.886474609375	289.6123657226562	47.86090850830085	-1103.118408203125	236.8157806396484	39.32289505004889	-1003.423828125	407.9418334960938	958.7703247070314	-1216.625854492188	305.6874389648438	851.3200683593751	-1208.409790039062	411.35009765625	1036.737182617188	-1382.6552734375	383.3323669433594	888.7368164062501	-1480.703857421875	359.7118225097656	834.5151367187501	-1509.321044921875	388.6529541015625	825.0068359375001	-1468.915771484375	336.7081298828125	629.4986572265626	-1530.0830078125	279.302001953125	575.1917114257814	-1536.080932617188	328.2580871582031	569.3168945312501	-1528.677734375	321.205078125	463.6622314453126	-1523.482055664062	336.8449401855469	463.7084960937501	-1445.57177734375	421.082275390625	1036.194213867188	-1058.281982421875	386.5995483398438	899.2337646484376	-958.6544189453125	388.8352966308594	834.1435546875001	-955.1798706054688	355.5383605957031	852.8956909179688	-923.115966796875	334.4654541015625	629.8975219726562	-896.8687744140625	381.6500244140625	565.5699462890625	-897.4113159179688	331.7954406738281	567.0424194335938	-897.6077270507812	350.6344299316406	477.4425964355469	-902.2910766601562	362.2554626464844	465.8075561523438	-980.0751953125	
193	0.96	1214.24658203125	39.25653457641616	-2269.22509765625	1226.86083984375	29.85278320312501	-248.7810821533203	625.0136108398438	1089.866088867188	-1217.1201171875	611.1127319335938	1144.037475585938	-1154.140747070312	608.8963012695312	1135.566772460938	-1290.39990234375	355.8629760742188	1147.13037109375	-1216.114624023438	187.3701171875	1084.608520507812	-1214.205444335938	153.6105194091797	1065.2451171875	-1235.072998046875	147.0431976318359	1060.18798828125	-1185.551147460938	104.7242431640625	1022.750427246094	-1220.999145507812	62.73977279663086	970.4268188476564	-1215.9501953125	24.61686134338379	961.4312133789064	-1229.731323242188	25.06803131103516	958.5281372070314	-1179.334106445312	-19.1568603515625	917.4511718750001	-1206.952026367188	-92.37968444824219	826.8191528320314	-1228.8310546875	-89.05062866210938	823.0879516601564	-1177.635620117188	-116.4985198974609	769.4826049804689	-1205.325927734375	117.5638580322266	546.8352661132814	-1420.441772460938	127.7223663330078	473.2133178710939	-1394.4814453125	162.0814361572266	505.4642944335939	-1412.86328125	220.6786956787109	300.9226379394532	-1433.822265625	157.0625457763672	254.5555267333985	-1420.397705078125	205.2299652099609	242.0229644775391	-1424.415893554688	76.13782501220703	68.64890289306649	-1321.58544921875	293.3808288574219	48.26097106933602	-1329.225708007812	244.0209808349609	29.58391380310067	-1429.762939453125	109.2246322631836	543.4505004882814	-998.8243408203125	187.3211364746094	549.4284667968751	-980.8883056640625	162.6639251708984	511.2151184082032	-1002.209411621094	217.2642211914062	316.4995727539063	-990.2066040039062	229.0743865966797	239.1759796142579	-997.0206298828125	186.5564270019531	263.8471984863282	-1004.111083984375	76.67450714111328	63.81577682495124	-1113.92138671875	289.6242980957031	47.84760665893562	-1103.11865234375	236.8137817382812	39.31304168701178	-1003.408874511719	408.2210083007812	956.0070800781251	-1216.614624023438	305.7194213867188	848.7513427734376	-1208.435913085938	411.881103515625	1033.94775390625	-1382.583862304688	384.0267333984375	885.9675292968751	-1480.59716796875	360.4996337890625	831.7249145507814	-1509.260864257812	389.3298950195312	822.2642211914064	-1468.7880859375	337.5400085449219	626.7354736328126	-1530.014404296875	280.1316833496094	572.4671630859376	-1536.292846679688	329.0416259765625	566.5576171875001	-1528.671875	321.9304809570312	460.9028625488282	-1523.542602539062	337.11474609375	460.8934936523439	-1445.582153320312	421.5645446777344	1033.439575195312	-1058.340942382812	387.1466674804688	896.5018920898439	-958.7163696289062	389.440185546875	831.4898681640626	-955.1405639648438	356.1441955566406	850.1589965820312	-923.138671875	334.9353637695312	627.2000122070312	-896.8324584960938	382.0348205566406	562.8145141601562	-897.467529296875	332.1849975585938	564.3506469726562	-897.5437622070312	350.8945007324219	474.7199707031251	-902.2379760742188	362.3107299804688	463.0953674316407	-980.0433959960938	
194	0.965	1214.246459960938	39.25572204589858	-2269.2236328125	1226.860595703125	29.85265922546388	-248.7810516357422	625.4617309570312	1087.069946289062	-1217.08056640625	611.5277099609375	1141.219360351562	-1154.089111328125	609.3350830078125	1132.777465820312	-1290.3544921875	356.3784484863281	1144.483032226562	-1216.122802734375	187.8072204589844	1082.312133789062	-1214.245239257812	153.9938201904297	1063.022216796875	-1235.137817382812	147.4265594482422	1057.972778320312	-1185.59716796875	105.0303497314453	1020.656982421875	-1221.060302734375	62.90767669677734	968.4149169921876	-1216.01953125	24.80712509155273	959.4837036132814	-1229.7880859375	25.24198150634766	956.5661621093751	-1179.394409179688	-19.04500198364258	915.5606689453126	-1207.059814453125	-92.54762268066406	824.9177246093751	-1228.93896484375	-89.2152099609375	821.1639404296876	-1177.74609375	-116.6893005371094	767.5811157226564	-1205.457153320312	117.9241180419922	545.6099853515626	-1420.627563476562	128.4029083251953	471.9920043945314	-1394.70263671875	162.6107788085938	504.3995666503907	-1413.110473632812	221.2816009521484	300.6266174316407	-1433.973999023438	157.5463409423828	254.4275054931641	-1420.521606445312	205.6972045898438	241.7535247802735	-1424.534790039062	76.1624755859375	68.67371368408212	-1321.573852539062	293.4150695800781	48.23109817504891	-1329.21533203125	243.998291015625	29.58868026733407	-1429.784301757812	109.5816421508789	542.0919189453126	-998.7832641601562	187.6419830322266	548.4329833984376	-980.7916870117188	163.1723327636719	510.0985717773438	-1002.100158691406	217.9051666259766	316.2079772949219	-990.1137084960938	229.5340576171875	238.8687896728516	-996.9549560546875	187.0548858642578	263.6416625976563	-1004.021240234375	76.70816802978516	63.85435485839851	-1113.957641601562	289.6363830566406	47.83377838134773	-1103.12060546875	236.8127136230469	39.30416870117194	-1003.395080566406	408.5008544921875	953.2584228515626	-1216.604370117188	305.7579956054688	846.1929321289064	-1208.459716796875	412.4045104980469	1031.174072265625	-1382.513793945312	384.7150573730469	883.2138671875001	-1480.49267578125	361.2778625488281	828.9515380859376	-1509.199096679688	390.0004272460938	819.5360717773439	-1468.6591796875	338.3660278320312	623.9836425781251	-1529.941284179688	280.9559936523438	569.7550048828126	-1536.493408203125	329.81982421875	563.8082275390626	-1528.659912109375	322.6537170410156	458.1553955078126	-1523.595947265625	337.3970642089844	458.0972290039064	-1445.585571289062	422.0442504882812	1030.702270507812	-1058.39892578125	387.6861877441406	893.7827148437501	-958.7798461914062	390.0337524414062	828.8457031250001	-955.1104125976562	356.739990234375	847.4340209960938	-923.1630249023438	335.4008178710938	624.5142822265625	-896.805419921875	382.4176330566406	560.0722045898438	-897.5376586914062	332.5723876953125	561.6704711914062	-897.4911499023438	351.1565856933594	472.0113525390626	-902.1986083984375	362.3510437011719	460.4027099609376	-980.0250854492188	
